<svg width="214" height="36" viewBox="0 0 214 36" fill="none" xmlns="http://www.w3.org/2000/svg">
<mask id="path-1-inside-1_8001_4834" fill="white">
<path fill-rule="evenodd" clip-rule="evenodd" d="M206 0H8L0 8V28L8 36H206L214 28V8L206 0Z"/>
</mask>
<path fill-rule="evenodd" clip-rule="evenodd" d="M206 0H8L0 8V28L8 36H206L214 28V8L206 0Z" fill="black"/>
<path d="M8 0V-1H7.58579L7.29289 -0.707107L8 0ZM206 0L206.707 -0.707107L206.414 -1H206V0ZM0 8L-0.707107 7.29289L-1 7.58579V8H0ZM0 28H-1V28.4142L-0.707107 28.7071L0 28ZM8 36L7.29289 36.7071L7.58579 37H8V36ZM206 36V37H206.414L206.707 36.7071L206 36ZM214 28L214.707 28.7071L215 28.4142V28H214ZM214 8H215V7.58579L214.707 7.29289L214 8ZM8 1H206V-1H8V1ZM0.707107 8.70711L8.70711 0.707107L7.29289 -0.707107L-0.707107 7.29289L0.707107 8.70711ZM1 28V8H-1V28H1ZM8.70711 35.2929L0.707107 27.2929L-0.707107 28.7071L7.29289 36.7071L8.70711 35.2929ZM206 35H8V37H206V35ZM213.293 27.2929L205.293 35.2929L206.707 36.7071L214.707 28.7071L213.293 27.2929ZM213 8V28H215V8H213ZM214.707 7.29289L206.707 -0.707107L205.293 0.707107L213.293 8.70711L214.707 7.29289Z" fill="#B9AC90" mask="url(#path-1-inside-1_8001_4834)"/>
<path d="M29.3457 22V13.4688H34.8125V14.418H30.4941V17.125H34.2676V18.0742H30.4941V21.0508H34.8711V22H29.3457ZM35.4219 22L38.5449 17.2773H38.6445L41.0117 13.4688H42.2773L39.3066 18.0742H39.207L36.6875 22H35.4219ZM35.5684 13.4688H36.875L39.2422 17.2773H39.3066L42.4297 22H41.123L38.6035 18.0742H38.5449L35.5684 13.4688ZM43.1445 17.9922V17.4766C43.1445 16.1602 43.4883 15.1348 44.1758 14.4004C44.8633 13.6621 45.7246 13.293 46.7598 13.293C47.7988 13.293 48.6055 13.5723 49.1797 14.1309C49.7539 14.6895 50.0547 15.3633 50.082 16.1523V16.2109H48.9336V16.1523C48.918 15.6367 48.7324 15.1973 48.377 14.834C48.0254 14.4668 47.4863 14.2832 46.7598 14.2832C46.0488 14.2832 45.4609 14.5527 44.9961 15.0918C44.5352 15.627 44.3047 16.4219 44.3047 17.4766V17.9922C44.3047 18.9883 44.5352 19.7695 44.9961 20.3359C45.457 20.9023 46.0449 21.1855 46.7598 21.1855C47.459 21.1855 47.9824 21.002 48.3301 20.6348C48.6777 20.2637 48.877 19.8242 48.9277 19.3164L48.9336 19.2578H50.082L50.0762 19.3164C49.998 20.1016 49.6855 20.7754 49.1387 21.3379C48.5918 21.8965 47.7988 22.1758 46.7598 22.1758C45.7246 22.1758 44.8633 21.8086 44.1758 21.0742C43.4883 20.3359 43.1445 19.3086 43.1445 17.9922ZM51.5879 22V13.4688H52.7363V21.0508H56.8672V22H51.5879ZM57.7109 19.2051V13.4688H58.8594V19.2051C58.8594 19.873 59.043 20.3711 59.4102 20.6992C59.7812 21.0234 60.2656 21.1855 60.8633 21.1855C61.4609 21.1855 61.9434 21.0234 62.3105 20.6992C62.6816 20.3711 62.8672 19.873 62.8672 19.2051V13.4688H64.0215V19.2051C64.0215 20.1934 63.7148 20.9355 63.1016 21.4316C62.4883 21.9277 61.7422 22.1758 60.8633 22.1758C59.9883 22.1758 59.2441 21.9277 58.6309 21.4316C58.0176 20.9355 57.7109 20.1934 57.7109 19.2051ZM65.4629 19.6562V19.5859H66.6113V19.6562C66.6113 20.168 66.7891 20.5527 67.1445 20.8105C67.5 21.0645 67.9961 21.1914 68.6328 21.1914C69.2734 21.1914 69.7617 21.0605 70.0977 20.7988C70.4375 20.5332 70.6074 20.1895 70.6074 19.7676C70.6074 19.3809 70.4473 19.0723 70.127 18.8418C69.8066 18.6074 69.1797 18.3633 68.2461 18.1094C67.293 17.8438 66.6191 17.5312 66.2246 17.1719C65.834 16.8086 65.6387 16.293 65.6387 15.625C65.6387 14.957 65.8984 14.4023 66.418 13.9609C66.9375 13.5156 67.6562 13.293 68.5742 13.293C69.4922 13.293 70.2227 13.5293 70.7656 14.002C71.3086 14.4746 71.5801 15.0664 71.5801 15.7773V15.8477H70.4316V15.7773C70.4316 15.3281 70.2754 14.9668 69.9629 14.6934C69.6543 14.416 69.1914 14.2773 68.5742 14.2773C67.9609 14.2773 67.5078 14.3965 67.2148 14.6348C66.9258 14.8691 66.7812 15.1816 66.7812 15.5723C66.7812 15.9473 66.9297 16.2422 67.2266 16.457C67.5234 16.6719 68.123 16.9023 69.0254 17.1484C69.9707 17.4023 70.6602 17.7246 71.0938 18.1152C71.5312 18.5059 71.75 19.0547 71.75 19.7617C71.75 20.4688 71.4688 21.0488 70.9062 21.502C70.3477 21.9512 69.5898 22.1758 68.6328 22.1758C67.6758 22.1758 66.9082 21.9512 66.3301 21.502C65.752 21.0488 65.4629 20.4336 65.4629 19.6562ZM73.25 22V13.4688H74.3984V22H73.25ZM75.4238 13.4688H76.6484L78.9336 19.7559C78.9844 19.8887 79.0273 20.0117 79.0625 20.125C79.0977 20.2383 79.1328 20.3574 79.168 20.4824H79.2207C79.2559 20.3574 79.291 20.2383 79.3262 20.125C79.3652 20.0117 79.4102 19.8887 79.4609 19.7559L81.7695 13.4688H82.9355L79.707 22.0586H78.6523L75.4238 13.4688ZM83.9316 22V13.4688H89.3984V14.418H85.0801V17.125H88.8535V18.0742H85.0801V21.0508H89.457V22H83.9316ZM93.4648 17.9922V17.4766C93.4648 16.1602 93.8086 15.1348 94.4961 14.4004C95.1836 13.6621 96.0664 13.293 97.1445 13.293C98.2188 13.293 99.0996 13.6621 99.7871 14.4004C100.475 15.1348 100.818 16.1602 100.818 17.4766V17.9922C100.818 19.3086 100.475 20.3359 99.7871 21.0742C99.0996 21.8086 98.2188 22.1758 97.1445 22.1758C96.0664 22.1758 95.1836 21.8086 94.4961 21.0742C93.8086 20.3359 93.4648 19.3086 93.4648 17.9922ZM94.625 17.9922C94.625 18.9883 94.8555 19.7695 95.3164 20.3359C95.7773 20.9023 96.3867 21.1855 97.1445 21.1855C97.8984 21.1855 98.5059 20.9023 98.9668 20.3359C99.4277 19.7695 99.6582 18.9883 99.6582 17.9922V17.4766C99.6582 16.4805 99.4277 15.6992 98.9668 15.1328C98.5059 14.5664 97.8984 14.2832 97.1445 14.2832C96.3867 14.2832 95.7773 14.5664 95.3164 15.1328C94.8555 15.6992 94.625 16.4805 94.625 17.4766V17.9922ZM102.494 22V13.4688H107.891V14.418H103.643V17.3066H107.305V18.2559H103.643V22H102.494ZM109.232 22V13.4688H114.629V14.418H110.381V17.3066H114.043V18.2559H110.381V22H109.232ZM115.971 22V13.4688H121.438V14.418H117.119V17.125H120.893V18.0742H117.119V21.0508H121.496V22H115.971ZM122.896 22V13.4688H125.738C126.672 13.4688 127.391 13.6992 127.895 14.1602C128.402 14.6172 128.656 15.2266 128.656 15.9883C128.656 16.75 128.402 17.3672 127.895 17.8398C127.391 18.3086 126.672 18.543 125.738 18.543H124.045V22H122.896ZM124.045 17.6055H125.738C126.398 17.6055 126.857 17.4492 127.115 17.1367C127.377 16.8203 127.508 16.4375 127.508 15.9883C127.508 15.5391 127.377 15.1641 127.115 14.8633C126.857 14.5625 126.398 14.4121 125.738 14.4121H124.045V17.6055ZM127.818 22L125.703 18.0625L126.852 17.8867L129.113 22H127.818ZM133.279 22V13.4688H138.676V14.418H134.428V17.3066H138.09V18.2559H134.428V22H133.279ZM139.695 17.9922V17.4766C139.695 16.1602 140.039 15.1348 140.727 14.4004C141.414 13.6621 142.297 13.293 143.375 13.293C144.449 13.293 145.33 13.6621 146.018 14.4004C146.705 15.1348 147.049 16.1602 147.049 17.4766V17.9922C147.049 19.3086 146.705 20.3359 146.018 21.0742C145.33 21.8086 144.449 22.1758 143.375 22.1758C142.297 22.1758 141.414 21.8086 140.727 21.0742C140.039 20.3359 139.695 19.3086 139.695 17.9922ZM140.855 17.9922C140.855 18.9883 141.086 19.7695 141.547 20.3359C142.008 20.9023 142.617 21.1855 143.375 21.1855C144.129 21.1855 144.736 20.9023 145.197 20.3359C145.658 19.7695 145.889 18.9883 145.889 17.9922V17.4766C145.889 16.4805 145.658 15.6992 145.197 15.1328C144.736 14.5664 144.129 14.2832 143.375 14.2832C142.617 14.2832 142.008 14.5664 141.547 15.1328C141.086 15.6992 140.855 16.4805 140.855 17.4766V17.9922ZM148.725 22V13.4688H151.566C152.5 13.4688 153.219 13.6992 153.723 14.1602C154.23 14.6172 154.484 15.2266 154.484 15.9883C154.484 16.75 154.23 17.3672 153.723 17.8398C153.219 18.3086 152.5 18.543 151.566 18.543H149.873V22H148.725ZM149.873 17.6055H151.566C152.227 17.6055 152.686 17.4492 152.943 17.1367C153.205 16.8203 153.336 16.4375 153.336 15.9883C153.336 15.5391 153.205 15.1641 152.943 14.8633C152.686 14.5625 152.227 14.4121 151.566 14.4121H149.873V17.6055ZM153.646 22L151.531 18.0625L152.68 17.8867L154.941 22H153.646ZM161.199 22V18.8301L158.199 13.4688H159.5L161.445 17.0605C161.508 17.1777 161.566 17.2891 161.621 17.3945C161.676 17.5 161.725 17.6055 161.768 17.7109H161.814C161.857 17.6055 161.906 17.5 161.961 17.3945C162.016 17.2891 162.074 17.1777 162.137 17.0605L164.105 13.4688H165.348L162.348 18.8301V22H161.199ZM165.816 17.9922V17.4766C165.816 16.1602 166.16 15.1348 166.848 14.4004C167.535 13.6621 168.418 13.293 169.496 13.293C170.57 13.293 171.451 13.6621 172.139 14.4004C172.826 15.1348 173.17 16.1602 173.17 17.4766V17.9922C173.17 19.3086 172.826 20.3359 172.139 21.0742C171.451 21.8086 170.57 22.1758 169.496 22.1758C168.418 22.1758 167.535 21.8086 166.848 21.0742C166.16 20.3359 165.816 19.3086 165.816 17.9922ZM166.977 17.9922C166.977 18.9883 167.207 19.7695 167.668 20.3359C168.129 20.9023 168.738 21.1855 169.496 21.1855C170.25 21.1855 170.857 20.9023 171.318 20.3359C171.779 19.7695 172.01 18.9883 172.01 17.9922V17.4766C172.01 16.4805 171.779 15.6992 171.318 15.1328C170.857 14.5664 170.25 14.2832 169.496 14.2832C168.738 14.2832 168.129 14.5664 167.668 15.1328C167.207 15.6992 166.977 16.4805 166.977 17.4766V17.9922ZM174.758 19.2051V13.4688H175.906V19.2051C175.906 19.873 176.09 20.3711 176.457 20.6992C176.828 21.0234 177.312 21.1855 177.91 21.1855C178.508 21.1855 178.99 21.0234 179.357 20.6992C179.729 20.3711 179.914 19.873 179.914 19.2051V13.4688H181.068V19.2051C181.068 20.1934 180.762 20.9355 180.148 21.4316C179.535 21.9277 178.789 22.1758 177.91 22.1758C177.035 22.1758 176.291 21.9277 175.678 21.4316C175.064 20.9355 174.758 20.1934 174.758 19.2051ZM183.072 21.4141C183.072 21.2188 183.135 21.0508 183.26 20.9102C183.389 20.7695 183.572 20.6992 183.811 20.6992C184.049 20.6992 184.232 20.7695 184.361 20.9102C184.49 21.0508 184.555 21.2188 184.555 21.4141C184.555 21.6094 184.49 21.7773 184.361 21.918C184.232 22.0586 184.049 22.1289 183.811 22.1289C183.572 22.1289 183.389 22.0586 183.26 21.918C183.135 21.7773 183.072 21.6094 183.072 21.4141ZM183.324 19.5742L183.23 13.4688H184.396L184.303 19.5742H183.324Z" fill="#B9AC90"/>
</svg>
